# xmcd
#
# Track frame offsets:
#	150
#	11853
#	32292
#	50097
#	63611
#	82689
#	112481
#	128046
#	149654
#	161713
#	185883
#
# Disc length: 3131 seconds
#
# Revision: 0
# Processed by: cddbd v1.5.2PL0 Copyright (c) Steve Scherf et al.
# Submitted via: EasyCDDAExtractor 10.2.0.1
#
DISCID=a30c390b
DTITLE=Sue Dabaco and Wise Fools - Voodoo Juice
DYEAR=1900
DGENRE=
TTITLE0=Train
TTITLE1=Human Thang
TTITLE2=Hound's Tooth
TTITLE3=Scourge
TTITLE4=The Perfect Moment
TTITLE5=Notes from Underground
TTITLE6=Blind Deaf Dumb
TTITLE7=Louisiana
TTITLE8=No Kinda Love
TTITLE9=Shock and Awe
TTITLE10=Voodoo Chile
EXTD=
EXTT0=
EXTT1=
EXTT2=
EXTT3=
EXTT4=
EXTT5=
EXTT6=
EXTT7=
EXTT8=
EXTT9=
EXTT10=
PLAYORDER=
